<svg width="274" height="202" viewBox="0 0 274 202" fill="none" xmlns="http://www.w3.org/2000/svg">
<rect y="95" width="132" height="49" rx="11" fill="#C4C4C4"/>
<path d="M19.3636 97H12.5892C11.8807 97 11.2251 97.3748 10.8657 97.9854L7.60146 103.53C7.23062 104.16 7.233 104.942 7.60767 105.57L10.8638 111.025C11.2248 111.63 11.877 112 12.5812 112H19.3717C20.072 112 20.7213 111.634 21.0835 111.034L24.3794 105.579C24.7614 104.947 24.7638 104.156 24.3857 103.521L21.0817 97.9762C20.721 97.3709 20.0683 97 19.3636 97Z" fill="#466BB0" stroke="white"/>
<g filter="url(#filter0_d)">
<path d="M11 109H21L14.75 110L11 109Z" fill="white"/>
</g>
<g filter="url(#filter1_d)">
<path d="M12 108L15 107.417V101L12 108Z" fill="white"/>
</g>
<g filter="url(#filter2_d)">
<path d="M16 107.5L20 108L16 98V107.5Z" fill="white"/>
</g>
<path d="M10.6797 125H9.23438V116.547H10.6797V125ZM9.11719 114.305C9.11719 114.07 9.1875 113.872 9.32812 113.711C9.47396 113.549 9.6875 113.469 9.96875 113.469C10.25 113.469 10.4635 113.549 10.6094 113.711C10.7552 113.872 10.8281 114.07 10.8281 114.305C10.8281 114.539 10.7552 114.734 10.6094 114.891C10.4635 115.047 10.25 115.125 9.96875 115.125C9.6875 115.125 9.47396 115.047 9.32812 114.891C9.1875 114.734 9.11719 114.539 9.11719 114.305ZM14.3672 116.547L14.4141 117.609C15.0599 116.797 15.9036 116.391 16.9453 116.391C18.7318 116.391 19.6328 117.398 19.6484 119.414V125H18.2031V119.406C18.1979 118.797 18.0573 118.346 17.7812 118.055C17.5104 117.763 17.0859 117.617 16.5078 117.617C16.0391 117.617 15.6276 117.742 15.2734 117.992C14.9193 118.242 14.6432 118.57 14.4453 118.977V125H13V116.547H14.3672ZM21.4844 120.703C21.4844 119.385 21.7891 118.339 22.3984 117.562C23.0078 116.781 23.8151 116.391 24.8203 116.391C25.8516 116.391 26.6562 116.755 27.2344 117.484L27.3047 116.547H28.625V124.797C28.625 125.891 28.2995 126.753 27.6484 127.383C27.0026 128.013 26.1328 128.328 25.0391 128.328C24.4297 128.328 23.8333 128.198 23.25 127.938C22.6667 127.677 22.2214 127.32 21.9141 126.867L22.6641 126C23.2839 126.766 24.0417 127.148 24.9375 127.148C25.6406 127.148 26.1875 126.951 26.5781 126.555C26.974 126.159 27.1719 125.602 27.1719 124.883V124.156C26.5938 124.823 25.8047 125.156 24.8047 125.156C23.8151 125.156 23.013 124.758 22.3984 123.961C21.7891 123.164 21.4844 122.078 21.4844 120.703ZM22.9375 120.867C22.9375 121.82 23.1328 122.57 23.5234 123.117C23.9141 123.659 24.4609 123.93 25.1641 123.93C26.0755 123.93 26.7448 123.516 27.1719 122.688V118.828C26.7292 118.021 26.0651 117.617 25.1797 117.617C24.4766 117.617 23.9271 117.891 23.5312 118.438C23.1354 118.984 22.9375 119.794 22.9375 120.867ZM34.8984 117.844C34.6797 117.807 34.4427 117.789 34.1875 117.789C33.2396 117.789 32.5964 118.193 32.2578 119V125H30.8125V116.547H32.2188L32.2422 117.523C32.7161 116.768 33.388 116.391 34.2578 116.391C34.5391 116.391 34.7526 116.427 34.8984 116.5V117.844ZM39.5859 125.156C38.4401 125.156 37.5078 124.781 36.7891 124.031C36.0703 123.276 35.7109 122.268 35.7109 121.008V120.742C35.7109 119.904 35.8698 119.156 36.1875 118.5C36.5104 117.839 36.9583 117.323 37.5312 116.953C38.1094 116.578 38.7344 116.391 39.4062 116.391C40.5052 116.391 41.3594 116.753 41.9688 117.477C42.5781 118.201 42.8828 119.237 42.8828 120.586V121.188H37.1562C37.1771 122.021 37.4193 122.695 37.8828 123.211C38.3516 123.721 38.9453 123.977 39.6641 123.977C40.1745 123.977 40.6068 123.872 40.9609 123.664C41.3151 123.456 41.625 123.18 41.8906 122.836L42.7734 123.523C42.0651 124.612 41.0026 125.156 39.5859 125.156ZM39.4062 117.578C38.8229 117.578 38.3333 117.792 37.9375 118.219C37.5417 118.641 37.2969 119.234 37.2031 120H41.4375V119.891C41.3958 119.156 41.1979 118.589 40.8438 118.188C40.4896 117.781 40.0104 117.578 39.4062 117.578ZM49.4844 122.758C49.4844 122.367 49.3359 122.065 49.0391 121.852C48.7474 121.633 48.2344 121.445 47.5 121.289C46.7708 121.133 46.1901 120.945 45.7578 120.727C45.3307 120.508 45.013 120.247 44.8047 119.945C44.6016 119.643 44.5 119.284 44.5 118.867C44.5 118.174 44.7917 117.589 45.375 117.109C45.9635 116.63 46.7135 116.391 47.625 116.391C48.5833 116.391 49.3594 116.638 49.9531 117.133C50.5521 117.628 50.8516 118.26 50.8516 119.031H49.3984C49.3984 118.635 49.2292 118.294 48.8906 118.008C48.5573 117.721 48.1354 117.578 47.625 117.578C47.099 117.578 46.6875 117.693 46.3906 117.922C46.0938 118.151 45.9453 118.451 45.9453 118.82C45.9453 119.169 46.0833 119.432 46.3594 119.609C46.6354 119.786 47.1328 119.956 47.8516 120.117C48.5755 120.279 49.1615 120.471 49.6094 120.695C50.0573 120.919 50.388 121.19 50.6016 121.508C50.8203 121.82 50.9297 122.203 50.9297 122.656C50.9297 123.411 50.6276 124.018 50.0234 124.477C49.4193 124.93 48.6354 125.156 47.6719 125.156C46.9948 125.156 46.3958 125.036 45.875 124.797C45.3542 124.557 44.9453 124.224 44.6484 123.797C44.3568 123.365 44.2109 122.898 44.2109 122.398H45.6562C45.6823 122.883 45.875 123.268 46.2344 123.555C46.599 123.836 47.0781 123.977 47.6719 123.977C48.2188 123.977 48.6562 123.867 48.9844 123.648C49.3177 123.424 49.4844 123.128 49.4844 122.758ZM57.7344 122.758C57.7344 122.367 57.5859 122.065 57.2891 121.852C56.9974 121.633 56.4844 121.445 55.75 121.289C55.0208 121.133 54.4401 120.945 54.0078 120.727C53.5807 120.508 53.263 120.247 53.0547 119.945C52.8516 119.643 52.75 119.284 52.75 118.867C52.75 118.174 53.0417 117.589 53.625 117.109C54.2135 116.63 54.9635 116.391 55.875 116.391C56.8333 116.391 57.6094 116.638 58.2031 117.133C58.8021 117.628 59.1016 118.26 59.1016 119.031H57.6484C57.6484 118.635 57.4792 118.294 57.1406 118.008C56.8073 117.721 56.3854 117.578 55.875 117.578C55.349 117.578 54.9375 117.693 54.6406 117.922C54.3438 118.151 54.1953 118.451 54.1953 118.82C54.1953 119.169 54.3333 119.432 54.6094 119.609C54.8854 119.786 55.3828 119.956 56.1016 120.117C56.8255 120.279 57.4115 120.471 57.8594 120.695C58.3073 120.919 58.638 121.19 58.8516 121.508C59.0703 121.82 59.1797 122.203 59.1797 122.656C59.1797 123.411 58.8776 124.018 58.2734 124.477C57.6693 124.93 56.8854 125.156 55.9219 125.156C55.2448 125.156 54.6458 125.036 54.125 124.797C53.6042 124.557 53.1953 124.224 52.8984 123.797C52.6068 123.365 52.4609 122.898 52.4609 122.398H53.9062C53.9323 122.883 54.125 123.268 54.4844 123.555C54.849 123.836 55.3281 123.977 55.9219 123.977C56.4688 123.977 56.9062 123.867 57.2344 123.648C57.5677 123.424 57.7344 123.128 57.7344 122.758ZM64.0703 120.758H60.2578V119.578H64.0703V120.758ZM65.1406 120.703C65.1406 119.385 65.4453 118.339 66.0547 117.562C66.6641 116.781 67.4714 116.391 68.4766 116.391C69.5078 116.391 70.3125 116.755 70.8906 117.484L70.9609 116.547H72.2812V124.797C72.2812 125.891 71.9557 126.753 71.3047 127.383C70.6589 128.013 69.7891 128.328 68.6953 128.328C68.0859 128.328 67.4896 128.198 66.9062 127.938C66.3229 127.677 65.8776 127.32 65.5703 126.867L66.3203 126C66.9401 126.766 67.6979 127.148 68.5938 127.148C69.2969 127.148 69.8438 126.951 70.2344 126.555C70.6302 126.159 70.8281 125.602 70.8281 124.883V124.156C70.25 124.823 69.4609 125.156 68.4609 125.156C67.4714 125.156 66.6693 124.758 66.0547 123.961C65.4453 123.164 65.1406 122.078 65.1406 120.703ZM66.5938 120.867C66.5938 121.82 66.7891 122.57 67.1797 123.117C67.5703 123.659 68.1172 123.93 68.8203 123.93C69.7318 123.93 70.401 123.516 70.8281 122.688V118.828C70.3854 118.021 69.7214 117.617 68.8359 117.617C68.1328 117.617 67.5833 117.891 67.1875 118.438C66.7917 118.984 66.5938 119.794 66.5938 120.867ZM79.6875 125C79.6042 124.833 79.5365 124.536 79.4844 124.109C78.8125 124.807 78.0104 125.156 77.0781 125.156C76.2448 125.156 75.5599 124.922 75.0234 124.453C74.4922 123.979 74.2266 123.38 74.2266 122.656C74.2266 121.776 74.5599 121.094 75.2266 120.609C75.8984 120.12 76.8411 119.875 78.0547 119.875H79.4609V119.211C79.4609 118.706 79.3099 118.305 79.0078 118.008C78.7057 117.706 78.2604 117.555 77.6719 117.555C77.1562 117.555 76.724 117.685 76.375 117.945C76.026 118.206 75.8516 118.521 75.8516 118.891H74.3984C74.3984 118.469 74.5469 118.062 74.8438 117.672C75.1458 117.276 75.5521 116.964 76.0625 116.734C76.5781 116.505 77.1432 116.391 77.7578 116.391C78.7318 116.391 79.4948 116.635 80.0469 117.125C80.599 117.609 80.8854 118.279 80.9062 119.133V123.023C80.9062 123.799 81.0052 124.417 81.2031 124.875V125H79.6875ZM77.2891 123.898C77.7422 123.898 78.1719 123.781 78.5781 123.547C78.9844 123.312 79.2786 123.008 79.4609 122.633V120.898H78.3281C76.5573 120.898 75.6719 121.417 75.6719 122.453C75.6719 122.906 75.8229 123.26 76.125 123.516C76.4271 123.771 76.8151 123.898 77.2891 123.898ZM85.1328 114.5V116.547H86.7109V117.664H85.1328V122.906C85.1328 123.245 85.2031 123.5 85.3438 123.672C85.4844 123.839 85.724 123.922 86.0625 123.922C86.2292 123.922 86.4583 123.891 86.75 123.828V125C86.3698 125.104 86 125.156 85.6406 125.156C84.9948 125.156 84.5078 124.961 84.1797 124.57C83.8516 124.18 83.6875 123.625 83.6875 122.906V117.664H82.1484V116.547H83.6875V114.5H85.1328ZM91.9141 125.156C90.7682 125.156 89.8359 124.781 89.1172 124.031C88.3984 123.276 88.0391 122.268 88.0391 121.008V120.742C88.0391 119.904 88.1979 119.156 88.5156 118.5C88.8385 117.839 89.2865 117.323 89.8594 116.953C90.4375 116.578 91.0625 116.391 91.7344 116.391C92.8333 116.391 93.6875 116.753 94.2969 117.477C94.9062 118.201 95.2109 119.237 95.2109 120.586V121.188H89.4844C89.5052 122.021 89.7474 122.695 90.2109 123.211C90.6797 123.721 91.2734 123.977 91.9922 123.977C92.5026 123.977 92.9349 123.872 93.2891 123.664C93.6432 123.456 93.9531 123.18 94.2188 122.836L95.1016 123.523C94.3932 124.612 93.3307 125.156 91.9141 125.156ZM91.7344 117.578C91.151 117.578 90.6615 117.792 90.2656 118.219C89.8698 118.641 89.625 119.234 89.5312 120H93.7656V119.891C93.724 119.156 93.526 118.589 93.1719 118.188C92.8177 117.781 92.3385 117.578 91.7344 117.578ZM104.375 123.008L106 116.547H107.445L104.984 125H103.812L101.758 118.594L99.7578 125H98.5859L96.1328 116.547H97.5703L99.2344 122.875L101.203 116.547H102.367L104.375 123.008ZM114.141 125C114.057 124.833 113.99 124.536 113.938 124.109C113.266 124.807 112.464 125.156 111.531 125.156C110.698 125.156 110.013 124.922 109.477 124.453C108.945 123.979 108.68 123.38 108.68 122.656C108.68 121.776 109.013 121.094 109.68 120.609C110.352 120.12 111.294 119.875 112.508 119.875H113.914V119.211C113.914 118.706 113.763 118.305 113.461 118.008C113.159 117.706 112.714 117.555 112.125 117.555C111.609 117.555 111.177 117.685 110.828 117.945C110.479 118.206 110.305 118.521 110.305 118.891H108.852C108.852 118.469 109 118.062 109.297 117.672C109.599 117.276 110.005 116.964 110.516 116.734C111.031 116.505 111.596 116.391 112.211 116.391C113.185 116.391 113.948 116.635 114.5 117.125C115.052 117.609 115.339 118.279 115.359 119.133V123.023C115.359 123.799 115.458 124.417 115.656 124.875V125H114.141ZM111.742 123.898C112.195 123.898 112.625 123.781 113.031 123.547C113.438 123.312 113.732 123.008 113.914 122.633V120.898H112.781C111.01 120.898 110.125 121.417 110.125 122.453C110.125 122.906 110.276 123.26 110.578 123.516C110.88 123.771 111.268 123.898 111.742 123.898ZM120.266 122.883L122.234 116.547H123.781L120.383 126.305C119.857 127.711 119.021 128.414 117.875 128.414L117.602 128.391L117.062 128.289V127.117L117.453 127.148C117.943 127.148 118.323 127.049 118.594 126.852C118.87 126.654 119.096 126.292 119.273 125.766L119.594 124.906L116.578 116.547H118.156L120.266 122.883Z" fill="black"/>
<path d="M133 202C133 202 133 194.271 133 187.646C133 181.021 129.899 177.947 123.309 177.708C116.719 177.47 77.9552 177.929 72.5282 177.708C67.1011 177.488 64.0001 172.187 64.0001 165.562C64.0001 158.937 64.0001 149 64.0001 149" stroke="black" stroke-width="2" stroke-linejoin="round" stroke-dasharray="4 4"/>
<path d="M66 88C66 88 66 72.4643 66 65.2143C66 57.9643 59.5671 52.253 52.1445 51.75C44.7219 51.247 38.289 51.75 32.3509 51.75C26.4128 51.75 20.5765 47.6071 19.4851 38.2857C18.3937 28.9643 19.4851 1 19.4851 1" stroke="black" stroke-width="2" stroke-linejoin="round" stroke-dasharray="4 4"/>
<path d="M66 86C66 86 66 75.5 66 65C66 54.5 73 51 87 51C101 51 110.5 51 122 51C133.5 51 144 46 144 35C144 24 144 1 144 1" stroke="black" stroke-width="2" stroke-linejoin="round" stroke-dasharray="4 4"/>
<path d="M66.1727 89V64.4419C66.1727 64.4419 62.5205 50.5 87 50.5C111.48 50.5 248.506 50.5 255.5 50.5C262.494 50.5 273 42.381 273 33.7442C273 25.1074 273 1 273 1" stroke="black" stroke-width="2" stroke-linejoin="round" stroke-dasharray="4 4"/>
<defs>
<filter id="filter0_d" x="11" y="97" width="50" height="33" filterUnits="userSpaceOnUse" color-interpolation-filters="sRGB">
<feFlood flood-opacity="0" result="BackgroundImageFix"/>
<feColorMatrix in="SourceAlpha" type="matrix" values="0 0 0 0 0 0 0 0 0 0 0 0 0 0 0 0 0 0 127 0"/>
<feOffset dx="24" dy="4"/>
<feGaussianBlur stdDeviation="8"/>
<feColorMatrix type="matrix" values="0 0 0 0 0.135371 0 0 0 0 0.135371 0 0 0 0 0.135371 0 0 0 0.25 0"/>
<feBlend mode="normal" in2="BackgroundImageFix" result="effect1_dropShadow"/>
<feBlend mode="normal" in="SourceGraphic" in2="effect1_dropShadow" result="shape"/>
</filter>
<filter id="filter1_d" x="12" y="89" width="43" height="39" filterUnits="userSpaceOnUse" color-interpolation-filters="sRGB">
<feFlood flood-opacity="0" result="BackgroundImageFix"/>
<feColorMatrix in="SourceAlpha" type="matrix" values="0 0 0 0 0 0 0 0 0 0 0 0 0 0 0 0 0 0 127 0"/>
<feOffset dx="24" dy="4"/>
<feGaussianBlur stdDeviation="8"/>
<feColorMatrix type="matrix" values="0 0 0 0 0.135371 0 0 0 0 0.135371 0 0 0 0 0.135371 0 0 0 0.25 0"/>
<feBlend mode="normal" in2="BackgroundImageFix" result="effect1_dropShadow"/>
<feBlend mode="normal" in="SourceGraphic" in2="effect1_dropShadow" result="shape"/>
</filter>
<filter id="filter2_d" x="16" y="86" width="44" height="42" filterUnits="userSpaceOnUse" color-interpolation-filters="sRGB">
<feFlood flood-opacity="0" result="BackgroundImageFix"/>
<feColorMatrix in="SourceAlpha" type="matrix" values="0 0 0 0 0 0 0 0 0 0 0 0 0 0 0 0 0 0 127 0"/>
<feOffset dx="24" dy="4"/>
<feGaussianBlur stdDeviation="8"/>
<feColorMatrix type="matrix" values="0 0 0 0 0.135371 0 0 0 0 0.135371 0 0 0 0 0.135371 0 0 0 0.25 0"/>
<feBlend mode="normal" in2="BackgroundImageFix" result="effect1_dropShadow"/>
<feBlend mode="normal" in="SourceGraphic" in2="effect1_dropShadow" result="shape"/>
</filter>
</defs>
</svg>
