<svg width="419" height="261" viewBox="0 0 419 261" fill="none" xmlns="http://www.w3.org/2000/svg">
<rect y="115" width="186" height="58" rx="11" fill="#C4C4C4"/>
<path d="M25.1099 119H11.8038C11.0933 119 10.4362 119.377 10.0774 119.99L3.59475 131.073C3.22772 131.701 3.23008 132.478 3.60091 133.103L10.0755 144.02C10.4358 144.628 11.0896 145 11.7957 145H25.1179C25.8203 145 26.4712 144.632 26.8327 144.029L33.3863 133.113C33.7644 132.483 33.7668 131.696 33.3926 131.064L26.8309 119.981C26.4708 119.373 25.8166 119 25.1099 119Z" fill="#466BB0" stroke="white"/>
<g filter="url(#filter0_d)">
<path d="M9.99999 140H27L16.375 142L9.99999 140Z" fill="white"/>
</g>
<g filter="url(#filter1_d)">
<path d="M11 138L17 137V126L11 138Z" fill="white"/>
</g>
<g filter="url(#filter2_d)">
<path d="M18 137.15L25 138L18 121V137.15Z" fill="white"/>
</g>
<path d="M38.3496 152H36.543V141.434H38.3496V152ZM36.3965 138.631C36.3965 138.338 36.4844 138.09 36.6602 137.889C36.8424 137.687 37.1094 137.586 37.4609 137.586C37.8125 137.586 38.0794 137.687 38.2617 137.889C38.444 138.09 38.5352 138.338 38.5352 138.631C38.5352 138.924 38.444 139.168 38.2617 139.363C38.0794 139.559 37.8125 139.656 37.4609 139.656C37.1094 139.656 36.8424 139.559 36.6602 139.363C36.4844 139.168 36.3965 138.924 36.3965 138.631ZM42.959 141.434L43.0176 142.762C43.8249 141.746 44.8796 141.238 46.1816 141.238C48.4147 141.238 49.541 142.498 49.5605 145.018V152H47.7539V145.008C47.7474 144.246 47.5716 143.683 47.2266 143.318C46.888 142.954 46.3574 142.771 45.6348 142.771C45.0488 142.771 44.5345 142.928 44.0918 143.24C43.6491 143.553 43.304 143.963 43.0566 144.471V152H41.25V141.434H42.959ZM51.8555 146.629C51.8555 144.982 52.2363 143.673 52.998 142.703C53.7598 141.727 54.7689 141.238 56.0254 141.238C57.3145 141.238 58.3203 141.694 59.043 142.605L59.1309 141.434H60.7812V151.746C60.7812 153.113 60.3743 154.191 59.5605 154.979C58.7533 155.766 57.666 156.16 56.2988 156.16C55.5371 156.16 54.7917 155.997 54.0625 155.672C53.3333 155.346 52.7767 154.9 52.3926 154.334L53.3301 153.25C54.1048 154.207 55.0521 154.686 56.1719 154.686C57.0508 154.686 57.7344 154.438 58.2227 153.943C58.7174 153.449 58.9648 152.752 58.9648 151.854V150.945C58.2422 151.779 57.2559 152.195 56.0059 152.195C54.7689 152.195 53.7663 151.697 52.998 150.701C52.2363 149.705 51.8555 148.348 51.8555 146.629ZM53.6719 146.834C53.6719 148.025 53.916 148.963 54.4043 149.646C54.8926 150.324 55.5762 150.662 56.4551 150.662C57.5944 150.662 58.431 150.145 58.9648 149.109V144.285C58.4115 143.276 57.5814 142.771 56.4746 142.771C55.5957 142.771 54.9089 143.113 54.4141 143.797C53.9193 144.48 53.6719 145.493 53.6719 146.834ZM68.623 143.055C68.3496 143.009 68.0534 142.986 67.7344 142.986C66.5495 142.986 65.7454 143.491 65.3223 144.5V152H63.5156V141.434H65.2734L65.3027 142.654C65.8952 141.71 66.735 141.238 67.8223 141.238C68.1738 141.238 68.4408 141.284 68.623 141.375V143.055ZM74.4824 152.195C73.0501 152.195 71.8848 151.727 70.9863 150.789C70.0879 149.845 69.6387 148.585 69.6387 147.01V146.678C69.6387 145.63 69.8372 144.695 70.2344 143.875C70.638 143.048 71.1979 142.404 71.9141 141.941C72.6367 141.473 73.418 141.238 74.2578 141.238C75.6315 141.238 76.6992 141.691 77.4609 142.596C78.2227 143.501 78.6035 144.796 78.6035 146.482V147.234H71.4453C71.4714 148.276 71.7741 149.119 72.3535 149.764C72.9395 150.402 73.6816 150.721 74.5801 150.721C75.2181 150.721 75.7585 150.59 76.2012 150.33C76.6439 150.07 77.0312 149.725 77.3633 149.295L78.4668 150.154C77.5814 151.515 76.2533 152.195 74.4824 152.195ZM74.2578 142.723C73.5286 142.723 72.9167 142.99 72.4219 143.523C71.9271 144.051 71.6211 144.793 71.5039 145.75H76.7969V145.613C76.7448 144.695 76.4974 143.986 76.0547 143.484C75.612 142.977 75.013 142.723 74.2578 142.723ZM86.8555 149.197C86.8555 148.709 86.6699 148.331 86.2988 148.064C85.9342 147.791 85.293 147.557 84.375 147.361C83.4635 147.166 82.7376 146.932 82.1973 146.658C81.6634 146.385 81.2663 146.059 81.0059 145.682C80.752 145.304 80.625 144.855 80.625 144.334C80.625 143.468 80.9896 142.736 81.7188 142.137C82.4544 141.538 83.3919 141.238 84.5312 141.238C85.7292 141.238 86.6992 141.548 87.4414 142.166C88.1901 142.785 88.5645 143.576 88.5645 144.539H86.748C86.748 144.044 86.5365 143.618 86.1133 143.26C85.6966 142.902 85.1693 142.723 84.5312 142.723C83.8737 142.723 83.3594 142.866 82.9883 143.152C82.6172 143.439 82.4316 143.813 82.4316 144.275C82.4316 144.712 82.6042 145.04 82.9492 145.262C83.2943 145.483 83.916 145.695 84.8145 145.896C85.7194 146.098 86.4518 146.339 87.0117 146.619C87.5716 146.899 87.985 147.238 88.252 147.635C88.5254 148.025 88.6621 148.504 88.6621 149.07C88.6621 150.014 88.2845 150.773 87.5293 151.346C86.7741 151.912 85.7943 152.195 84.5898 152.195C83.7435 152.195 82.9948 152.046 82.3438 151.746C81.6927 151.447 81.1816 151.03 80.8105 150.496C80.446 149.956 80.2637 149.373 80.2637 148.748H82.0703C82.1029 149.354 82.3438 149.835 82.793 150.193C83.2487 150.545 83.8477 150.721 84.5898 150.721C85.2734 150.721 85.8203 150.584 86.2305 150.311C86.6471 150.031 86.8555 149.66 86.8555 149.197ZM97.168 149.197C97.168 148.709 96.9824 148.331 96.6113 148.064C96.2467 147.791 95.6055 147.557 94.6875 147.361C93.776 147.166 93.0501 146.932 92.5098 146.658C91.9759 146.385 91.5788 146.059 91.3184 145.682C91.0645 145.304 90.9375 144.855 90.9375 144.334C90.9375 143.468 91.3021 142.736 92.0312 142.137C92.7669 141.538 93.7044 141.238 94.8438 141.238C96.0417 141.238 97.0117 141.548 97.7539 142.166C98.5026 142.785 98.877 143.576 98.877 144.539H97.0605C97.0605 144.044 96.849 143.618 96.4258 143.26C96.0091 142.902 95.4818 142.723 94.8438 142.723C94.1862 142.723 93.6719 142.866 93.3008 143.152C92.9297 143.439 92.7441 143.813 92.7441 144.275C92.7441 144.712 92.9167 145.04 93.2617 145.262C93.6068 145.483 94.2285 145.695 95.127 145.896C96.0319 146.098 96.7643 146.339 97.3242 146.619C97.8841 146.899 98.2975 147.238 98.5645 147.635C98.8379 148.025 98.9746 148.504 98.9746 149.07C98.9746 150.014 98.597 150.773 97.8418 151.346C97.0866 151.912 96.1068 152.195 94.9023 152.195C94.056 152.195 93.3073 152.046 92.6562 151.746C92.0052 151.447 91.4941 151.03 91.123 150.496C90.7585 149.956 90.5762 149.373 90.5762 148.748H92.3828C92.4154 149.354 92.6562 149.835 93.1055 150.193C93.5612 150.545 94.1602 150.721 94.9023 150.721C95.5859 150.721 96.1328 150.584 96.543 150.311C96.9596 150.031 97.168 149.66 97.168 149.197ZM105.088 146.697H100.322V145.223H105.088V146.697ZM106.426 146.629C106.426 144.982 106.807 143.673 107.568 142.703C108.33 141.727 109.339 141.238 110.596 141.238C111.885 141.238 112.891 141.694 113.613 142.605L113.701 141.434H115.352V151.746C115.352 153.113 114.945 154.191 114.131 154.979C113.324 155.766 112.236 156.16 110.869 156.16C110.107 156.16 109.362 155.997 108.633 155.672C107.904 155.346 107.347 154.9 106.963 154.334L107.9 153.25C108.675 154.207 109.622 154.686 110.742 154.686C111.621 154.686 112.305 154.438 112.793 153.943C113.288 153.449 113.535 152.752 113.535 151.854V150.945C112.812 151.779 111.826 152.195 110.576 152.195C109.339 152.195 108.337 151.697 107.568 150.701C106.807 149.705 106.426 148.348 106.426 146.629ZM108.242 146.834C108.242 148.025 108.486 148.963 108.975 149.646C109.463 150.324 110.146 150.662 111.025 150.662C112.165 150.662 113.001 150.145 113.535 149.109V144.285C112.982 143.276 112.152 142.771 111.045 142.771C110.166 142.771 109.479 143.113 108.984 143.797C108.49 144.48 108.242 145.493 108.242 146.834ZM124.609 152C124.505 151.792 124.421 151.421 124.355 150.887C123.516 151.759 122.513 152.195 121.348 152.195C120.306 152.195 119.45 151.902 118.779 151.316C118.115 150.724 117.783 149.975 117.783 149.07C117.783 147.97 118.2 147.117 119.033 146.512C119.873 145.9 121.051 145.594 122.568 145.594H124.326V144.764C124.326 144.132 124.137 143.631 123.76 143.26C123.382 142.882 122.826 142.693 122.09 142.693C121.445 142.693 120.905 142.856 120.469 143.182C120.033 143.507 119.814 143.901 119.814 144.363H117.998C117.998 143.836 118.184 143.328 118.555 142.84C118.932 142.345 119.44 141.954 120.078 141.668C120.723 141.382 121.429 141.238 122.197 141.238C123.415 141.238 124.368 141.544 125.059 142.156C125.749 142.762 126.107 143.598 126.133 144.666V149.529C126.133 150.499 126.257 151.271 126.504 151.844V152H124.609ZM121.611 150.623C122.178 150.623 122.715 150.477 123.223 150.184C123.73 149.891 124.098 149.51 124.326 149.041V146.873H122.91C120.697 146.873 119.59 147.521 119.59 148.816C119.59 149.383 119.779 149.826 120.156 150.145C120.534 150.464 121.019 150.623 121.611 150.623ZM131.416 138.875V141.434H133.389V142.83H131.416V149.383C131.416 149.806 131.504 150.125 131.68 150.34C131.855 150.548 132.155 150.652 132.578 150.652C132.786 150.652 133.073 150.613 133.438 150.535V152C132.962 152.13 132.5 152.195 132.051 152.195C131.243 152.195 130.635 151.951 130.225 151.463C129.814 150.975 129.609 150.281 129.609 149.383V142.83H127.686V141.434H129.609V138.875H131.416ZM139.893 152.195C138.46 152.195 137.295 151.727 136.396 150.789C135.498 149.845 135.049 148.585 135.049 147.01V146.678C135.049 145.63 135.247 144.695 135.645 143.875C136.048 143.048 136.608 142.404 137.324 141.941C138.047 141.473 138.828 141.238 139.668 141.238C141.042 141.238 142.109 141.691 142.871 142.596C143.633 143.501 144.014 144.796 144.014 146.482V147.234H136.855C136.882 148.276 137.184 149.119 137.764 149.764C138.35 150.402 139.092 150.721 139.99 150.721C140.628 150.721 141.169 150.59 141.611 150.33C142.054 150.07 142.441 149.725 142.773 149.295L143.877 150.154C142.992 151.515 141.663 152.195 139.893 152.195ZM139.668 142.723C138.939 142.723 138.327 142.99 137.832 143.523C137.337 144.051 137.031 144.793 136.914 145.75H142.207V145.613C142.155 144.695 141.908 143.986 141.465 143.484C141.022 142.977 140.423 142.723 139.668 142.723ZM155.469 149.51L157.5 141.434H159.307L156.23 152H154.766L152.197 143.992L149.697 152H148.232L145.166 141.434H146.963L149.043 149.344L151.504 141.434H152.959L155.469 149.51ZM167.676 152C167.572 151.792 167.487 151.421 167.422 150.887C166.582 151.759 165.579 152.195 164.414 152.195C163.372 152.195 162.516 151.902 161.846 151.316C161.182 150.724 160.85 149.975 160.85 149.07C160.85 147.97 161.266 147.117 162.1 146.512C162.939 145.9 164.118 145.594 165.635 145.594H167.393V144.764C167.393 144.132 167.204 143.631 166.826 143.26C166.449 142.882 165.892 142.693 165.156 142.693C164.512 142.693 163.971 142.856 163.535 143.182C163.099 143.507 162.881 143.901 162.881 144.363H161.064C161.064 143.836 161.25 143.328 161.621 142.84C161.999 142.345 162.507 141.954 163.145 141.668C163.789 141.382 164.495 141.238 165.264 141.238C166.481 141.238 167.435 141.544 168.125 142.156C168.815 142.762 169.173 143.598 169.199 144.666V149.529C169.199 150.499 169.323 151.271 169.57 151.844V152H167.676ZM164.678 150.623C165.244 150.623 165.781 150.477 166.289 150.184C166.797 149.891 167.165 149.51 167.393 149.041V146.873H165.977C163.763 146.873 162.656 147.521 162.656 148.816C162.656 149.383 162.845 149.826 163.223 150.145C163.6 150.464 164.085 150.623 164.678 150.623ZM175.332 149.354L177.793 141.434H179.727L175.479 153.631C174.821 155.389 173.776 156.268 172.344 156.268L172.002 156.238L171.328 156.111V154.646L171.816 154.686C172.428 154.686 172.904 154.562 173.242 154.314C173.587 154.067 173.87 153.615 174.092 152.957L174.492 151.883L170.723 141.434H172.695L175.332 149.354Z" fill="black"/>
<rect x="233" y="115" width="186" height="58" rx="11" fill="#C4C4C4"/>
<path d="M258.11 119H244.804C244.093 119 243.436 119.377 243.077 119.99L236.595 131.073C236.228 131.701 236.23 132.478 236.601 133.103L243.076 144.02C243.436 144.628 244.09 145 244.796 145H258.118C258.82 145 259.471 144.632 259.833 144.029L266.386 133.113C266.764 132.483 266.767 131.696 266.393 131.064L259.831 119.981C259.471 119.373 258.817 119 258.11 119Z" fill="#466BB0" stroke="white"/>
<g filter="url(#filter3_d)">
<path d="M243 140H260L249.375 142L243 140Z" fill="white"/>
</g>
<g filter="url(#filter4_d)">
<path d="M244 138L250 137V126L244 138Z" fill="white"/>
</g>
<g filter="url(#filter5_d)">
<path d="M251 137.15L258 138L251 121V137.15Z" fill="white"/>
</g>
<path d="M278.918 151.195C277.486 151.195 276.32 150.727 275.422 149.789C274.523 148.845 274.074 147.585 274.074 146.01V145.678C274.074 144.63 274.273 143.695 274.67 142.875C275.074 142.048 275.633 141.404 276.35 140.941C277.072 140.473 277.854 140.238 278.693 140.238C280.067 140.238 281.135 140.691 281.896 141.596C282.658 142.501 283.039 143.796 283.039 145.482V146.234H275.881C275.907 147.276 276.21 148.119 276.789 148.764C277.375 149.402 278.117 149.721 279.016 149.721C279.654 149.721 280.194 149.59 280.637 149.33C281.079 149.07 281.467 148.725 281.799 148.295L282.902 149.154C282.017 150.515 280.689 151.195 278.918 151.195ZM278.693 141.723C277.964 141.723 277.352 141.99 276.857 142.523C276.363 143.051 276.057 143.793 275.939 144.75H281.232V144.613C281.18 143.695 280.933 142.986 280.49 142.484C280.048 141.977 279.449 141.723 278.693 141.723ZM284.709 145.629C284.709 143.982 285.09 142.673 285.852 141.703C286.613 140.727 287.622 140.238 288.879 140.238C290.168 140.238 291.174 140.694 291.896 141.605L291.984 140.434H293.635V150.746C293.635 152.113 293.228 153.191 292.414 153.979C291.607 154.766 290.52 155.16 289.152 155.16C288.391 155.16 287.645 154.997 286.916 154.672C286.187 154.346 285.63 153.9 285.246 153.334L286.184 152.25C286.958 153.207 287.906 153.686 289.025 153.686C289.904 153.686 290.588 153.438 291.076 152.943C291.571 152.449 291.818 151.752 291.818 150.854V149.945C291.096 150.779 290.109 151.195 288.859 151.195C287.622 151.195 286.62 150.697 285.852 149.701C285.09 148.705 284.709 147.348 284.709 145.629ZM286.525 145.834C286.525 147.025 286.77 147.963 287.258 148.646C287.746 149.324 288.43 149.662 289.309 149.662C290.448 149.662 291.285 149.145 291.818 148.109V143.285C291.265 142.276 290.435 141.771 289.328 141.771C288.449 141.771 287.762 142.113 287.268 142.797C286.773 143.48 286.525 144.493 286.525 145.834ZM301.477 142.055C301.203 142.009 300.907 141.986 300.588 141.986C299.403 141.986 298.599 142.491 298.176 143.5V151H296.369V140.434H298.127L298.156 141.654C298.749 140.71 299.589 140.238 300.676 140.238C301.027 140.238 301.294 140.284 301.477 140.375V142.055ZM307.336 151.195C305.904 151.195 304.738 150.727 303.84 149.789C302.941 148.845 302.492 147.585 302.492 146.01V145.678C302.492 144.63 302.691 143.695 303.088 142.875C303.492 142.048 304.051 141.404 304.768 140.941C305.49 140.473 306.271 140.238 307.111 140.238C308.485 140.238 309.553 140.691 310.314 141.596C311.076 142.501 311.457 143.796 311.457 145.482V146.234H304.299C304.325 147.276 304.628 148.119 305.207 148.764C305.793 149.402 306.535 149.721 307.434 149.721C308.072 149.721 308.612 149.59 309.055 149.33C309.497 149.07 309.885 148.725 310.217 148.295L311.32 149.154C310.435 150.515 309.107 151.195 307.336 151.195ZM307.111 141.723C306.382 141.723 305.77 141.99 305.275 142.523C304.781 143.051 304.475 143.793 304.357 144.75H309.65V144.613C309.598 143.695 309.351 142.986 308.908 142.484C308.465 141.977 307.867 141.723 307.111 141.723ZM319.709 148.197C319.709 147.709 319.523 147.331 319.152 147.064C318.788 146.791 318.146 146.557 317.229 146.361C316.317 146.166 315.591 145.932 315.051 145.658C314.517 145.385 314.12 145.059 313.859 144.682C313.605 144.304 313.479 143.855 313.479 143.334C313.479 142.468 313.843 141.736 314.572 141.137C315.308 140.538 316.245 140.238 317.385 140.238C318.583 140.238 319.553 140.548 320.295 141.166C321.044 141.785 321.418 142.576 321.418 143.539H319.602C319.602 143.044 319.39 142.618 318.967 142.26C318.55 141.902 318.023 141.723 317.385 141.723C316.727 141.723 316.213 141.866 315.842 142.152C315.471 142.439 315.285 142.813 315.285 143.275C315.285 143.712 315.458 144.04 315.803 144.262C316.148 144.483 316.77 144.695 317.668 144.896C318.573 145.098 319.305 145.339 319.865 145.619C320.425 145.899 320.839 146.238 321.105 146.635C321.379 147.025 321.516 147.504 321.516 148.07C321.516 149.014 321.138 149.773 320.383 150.346C319.628 150.912 318.648 151.195 317.443 151.195C316.597 151.195 315.848 151.046 315.197 150.746C314.546 150.447 314.035 150.03 313.664 149.496C313.299 148.956 313.117 148.373 313.117 147.748H314.924C314.956 148.354 315.197 148.835 315.646 149.193C316.102 149.545 316.701 149.721 317.443 149.721C318.127 149.721 318.674 149.584 319.084 149.311C319.501 149.031 319.709 148.66 319.709 148.197ZM330.021 148.197C330.021 147.709 329.836 147.331 329.465 147.064C329.1 146.791 328.459 146.557 327.541 146.361C326.63 146.166 325.904 145.932 325.363 145.658C324.829 145.385 324.432 145.059 324.172 144.682C323.918 144.304 323.791 143.855 323.791 143.334C323.791 142.468 324.156 141.736 324.885 141.137C325.62 140.538 326.558 140.238 327.697 140.238C328.895 140.238 329.865 140.548 330.607 141.166C331.356 141.785 331.73 142.576 331.73 143.539H329.914C329.914 143.044 329.702 142.618 329.279 142.26C328.863 141.902 328.335 141.723 327.697 141.723C327.04 141.723 326.525 141.866 326.154 142.152C325.783 142.439 325.598 142.813 325.598 143.275C325.598 143.712 325.77 144.04 326.115 144.262C326.46 144.483 327.082 144.695 327.98 144.896C328.885 145.098 329.618 145.339 330.178 145.619C330.738 145.899 331.151 146.238 331.418 146.635C331.691 147.025 331.828 147.504 331.828 148.07C331.828 149.014 331.451 149.773 330.695 150.346C329.94 150.912 328.96 151.195 327.756 151.195C326.91 151.195 326.161 151.046 325.51 150.746C324.859 150.447 324.348 150.03 323.977 149.496C323.612 148.956 323.43 148.373 323.43 147.748H325.236C325.269 148.354 325.51 148.835 325.959 149.193C326.415 149.545 327.014 149.721 327.756 149.721C328.439 149.721 328.986 149.584 329.396 149.311C329.813 149.031 330.021 148.66 330.021 148.197ZM337.941 145.697H333.176V144.223H337.941V145.697ZM339.279 145.629C339.279 143.982 339.66 142.673 340.422 141.703C341.184 140.727 342.193 140.238 343.449 140.238C344.738 140.238 345.744 140.694 346.467 141.605L346.555 140.434H348.205V150.746C348.205 152.113 347.798 153.191 346.984 153.979C346.177 154.766 345.09 155.16 343.723 155.16C342.961 155.16 342.215 154.997 341.486 154.672C340.757 154.346 340.201 153.9 339.816 153.334L340.754 152.25C341.529 153.207 342.476 153.686 343.596 153.686C344.475 153.686 345.158 153.438 345.646 152.943C346.141 152.449 346.389 151.752 346.389 150.854V149.945C345.666 150.779 344.68 151.195 343.43 151.195C342.193 151.195 341.19 150.697 340.422 149.701C339.66 148.705 339.279 147.348 339.279 145.629ZM341.096 145.834C341.096 147.025 341.34 147.963 341.828 148.646C342.316 149.324 343 149.662 343.879 149.662C345.018 149.662 345.855 149.145 346.389 148.109V143.285C345.835 142.276 345.005 141.771 343.898 141.771C343.02 141.771 342.333 142.113 341.838 142.797C341.343 143.48 341.096 144.493 341.096 145.834ZM357.463 151C357.359 150.792 357.274 150.421 357.209 149.887C356.369 150.759 355.367 151.195 354.201 151.195C353.16 151.195 352.303 150.902 351.633 150.316C350.969 149.724 350.637 148.975 350.637 148.07C350.637 146.97 351.053 146.117 351.887 145.512C352.727 144.9 353.905 144.594 355.422 144.594H357.18V143.764C357.18 143.132 356.991 142.631 356.613 142.26C356.236 141.882 355.679 141.693 354.943 141.693C354.299 141.693 353.758 141.856 353.322 142.182C352.886 142.507 352.668 142.901 352.668 143.363H350.852C350.852 142.836 351.037 142.328 351.408 141.84C351.786 141.345 352.294 140.954 352.932 140.668C353.576 140.382 354.283 140.238 355.051 140.238C356.268 140.238 357.222 140.544 357.912 141.156C358.602 141.762 358.96 142.598 358.986 143.666V148.529C358.986 149.499 359.11 150.271 359.357 150.844V151H357.463ZM354.465 149.623C355.031 149.623 355.568 149.477 356.076 149.184C356.584 148.891 356.952 148.51 357.18 148.041V145.873H355.764C353.55 145.873 352.443 146.521 352.443 147.816C352.443 148.383 352.632 148.826 353.01 149.145C353.387 149.464 353.872 149.623 354.465 149.623ZM364.27 137.875V140.434H366.242V141.83H364.27V148.383C364.27 148.806 364.357 149.125 364.533 149.34C364.709 149.548 365.008 149.652 365.432 149.652C365.64 149.652 365.926 149.613 366.291 149.535V151C365.816 151.13 365.354 151.195 364.904 151.195C364.097 151.195 363.488 150.951 363.078 150.463C362.668 149.975 362.463 149.281 362.463 148.383V141.83H360.539V140.434H362.463V137.875H364.27ZM372.746 151.195C371.314 151.195 370.148 150.727 369.25 149.789C368.352 148.845 367.902 147.585 367.902 146.01V145.678C367.902 144.63 368.101 143.695 368.498 142.875C368.902 142.048 369.462 141.404 370.178 140.941C370.9 140.473 371.682 140.238 372.521 140.238C373.895 140.238 374.963 140.691 375.725 141.596C376.486 142.501 376.867 143.796 376.867 145.482V146.234H369.709C369.735 147.276 370.038 148.119 370.617 148.764C371.203 149.402 371.945 149.721 372.844 149.721C373.482 149.721 374.022 149.59 374.465 149.33C374.908 149.07 375.295 148.725 375.627 148.295L376.73 149.154C375.845 150.515 374.517 151.195 372.746 151.195ZM372.521 141.723C371.792 141.723 371.18 141.99 370.686 142.523C370.191 143.051 369.885 143.793 369.768 144.75H375.061V144.613C375.008 143.695 374.761 142.986 374.318 142.484C373.876 141.977 373.277 141.723 372.521 141.723ZM388.322 148.51L390.354 140.434H392.16L389.084 151H387.619L385.051 142.992L382.551 151H381.086L378.02 140.434H379.816L381.896 148.344L384.357 140.434H385.812L388.322 148.51ZM400.529 151C400.425 150.792 400.34 150.421 400.275 149.887C399.436 150.759 398.433 151.195 397.268 151.195C396.226 151.195 395.37 150.902 394.699 150.316C394.035 149.724 393.703 148.975 393.703 148.07C393.703 146.97 394.12 146.117 394.953 145.512C395.793 144.9 396.971 144.594 398.488 144.594H400.246V143.764C400.246 143.132 400.057 142.631 399.68 142.26C399.302 141.882 398.745 141.693 398.01 141.693C397.365 141.693 396.825 141.856 396.389 142.182C395.952 142.507 395.734 142.901 395.734 143.363H393.918C393.918 142.836 394.104 142.328 394.475 141.84C394.852 141.345 395.36 140.954 395.998 140.668C396.643 140.382 397.349 140.238 398.117 140.238C399.335 140.238 400.288 140.544 400.979 141.156C401.669 141.762 402.027 142.598 402.053 143.666V148.529C402.053 149.499 402.176 150.271 402.424 150.844V151H400.529ZM397.531 149.623C398.098 149.623 398.635 149.477 399.143 149.184C399.65 148.891 400.018 148.51 400.246 148.041V145.873H398.83C396.617 145.873 395.51 146.521 395.51 147.816C395.51 148.383 395.699 148.826 396.076 149.145C396.454 149.464 396.939 149.623 397.531 149.623ZM408.186 148.354L410.646 140.434H412.58L408.332 152.631C407.674 154.389 406.63 155.268 405.197 155.268L404.855 155.238L404.182 155.111V153.646L404.67 153.686C405.282 153.686 405.757 153.562 406.096 153.314C406.441 153.067 406.724 152.615 406.945 151.957L407.346 150.883L403.576 140.434H405.549L408.186 148.354Z" fill="black"/>
<path d="M222 261C222 261 222 248.75 222 238.25C222 227.75 216.562 222.878 205.006 222.5C193.449 222.122 125.472 222.85 115.955 222.5C106.438 222.15 101 213.75 101 203.25C101 192.75 101 177 101 177" stroke="black" stroke-width="4" stroke-linejoin="round" stroke-dasharray="4 4"/>
<path d="M101 110C101 110 101 90.5357 101 81.4524C101 72.3691 90.5978 65.2135 78.5953 64.5833C66.5929 63.9532 56.1907 64.5833 46.5887 64.5833C36.9867 64.5833 27.5492 59.3929 25.7844 47.7143C24.0195 36.0357 25.7844 1 25.7844 1" stroke="black" stroke-width="4" stroke-linejoin="round" stroke-dasharray="4 4"/>
<path d="M101 108C101 108 101 94.7824 101 81.5647C101 68.3471 110.603 63.9412 129.808 63.9412C149.013 63.9412 162.045 63.9412 177.821 63.9412C193.596 63.9412 208 57.6471 208 43.8C208 29.9529 208 1 208 1" stroke="black" stroke-width="4" stroke-linejoin="round" stroke-dasharray="4 4"/>
<path d="M101.29 111V80.5814C101.29 80.5814 95.8032 63.3125 132.578 63.3125C169.353 63.3125 375.203 63.3125 385.71 63.3125C396.217 63.3125 412 53.2559 412 42.5581C412 31.8603 412 2 412 2" stroke="black" stroke-width="4" stroke-linejoin="round" stroke-dasharray="4 4"/>
<defs>
<filter id="filter0_d" x="9.99999" y="128" width="57" height="34" filterUnits="userSpaceOnUse" color-interpolation-filters="sRGB">
<feFlood flood-opacity="0" result="BackgroundImageFix"/>
<feColorMatrix in="SourceAlpha" type="matrix" values="0 0 0 0 0 0 0 0 0 0 0 0 0 0 0 0 0 0 127 0"/>
<feOffset dx="24" dy="4"/>
<feGaussianBlur stdDeviation="8"/>
<feColorMatrix type="matrix" values="0 0 0 0 0.135371 0 0 0 0 0.135371 0 0 0 0 0.135371 0 0 0 0.25 0"/>
<feBlend mode="normal" in2="BackgroundImageFix" result="effect1_dropShadow"/>
<feBlend mode="normal" in="SourceGraphic" in2="effect1_dropShadow" result="shape"/>
</filter>
<filter id="filter1_d" x="11" y="114" width="46" height="44" filterUnits="userSpaceOnUse" color-interpolation-filters="sRGB">
<feFlood flood-opacity="0" result="BackgroundImageFix"/>
<feColorMatrix in="SourceAlpha" type="matrix" values="0 0 0 0 0 0 0 0 0 0 0 0 0 0 0 0 0 0 127 0"/>
<feOffset dx="24" dy="4"/>
<feGaussianBlur stdDeviation="8"/>
<feColorMatrix type="matrix" values="0 0 0 0 0.135371 0 0 0 0 0.135371 0 0 0 0 0.135371 0 0 0 0.25 0"/>
<feBlend mode="normal" in2="BackgroundImageFix" result="effect1_dropShadow"/>
<feBlend mode="normal" in="SourceGraphic" in2="effect1_dropShadow" result="shape"/>
</filter>
<filter id="filter2_d" x="18" y="109" width="47" height="49" filterUnits="userSpaceOnUse" color-interpolation-filters="sRGB">
<feFlood flood-opacity="0" result="BackgroundImageFix"/>
<feColorMatrix in="SourceAlpha" type="matrix" values="0 0 0 0 0 0 0 0 0 0 0 0 0 0 0 0 0 0 127 0"/>
<feOffset dx="24" dy="4"/>
<feGaussianBlur stdDeviation="8"/>
<feColorMatrix type="matrix" values="0 0 0 0 0.135371 0 0 0 0 0.135371 0 0 0 0 0.135371 0 0 0 0.25 0"/>
<feBlend mode="normal" in2="BackgroundImageFix" result="effect1_dropShadow"/>
<feBlend mode="normal" in="SourceGraphic" in2="effect1_dropShadow" result="shape"/>
</filter>
<filter id="filter3_d" x="243" y="128" width="57" height="34" filterUnits="userSpaceOnUse" color-interpolation-filters="sRGB">
<feFlood flood-opacity="0" result="BackgroundImageFix"/>
<feColorMatrix in="SourceAlpha" type="matrix" values="0 0 0 0 0 0 0 0 0 0 0 0 0 0 0 0 0 0 127 0"/>
<feOffset dx="24" dy="4"/>
<feGaussianBlur stdDeviation="8"/>
<feColorMatrix type="matrix" values="0 0 0 0 0.135371 0 0 0 0 0.135371 0 0 0 0 0.135371 0 0 0 0.25 0"/>
<feBlend mode="normal" in2="BackgroundImageFix" result="effect1_dropShadow"/>
<feBlend mode="normal" in="SourceGraphic" in2="effect1_dropShadow" result="shape"/>
</filter>
<filter id="filter4_d" x="244" y="114" width="46" height="44" filterUnits="userSpaceOnUse" color-interpolation-filters="sRGB">
<feFlood flood-opacity="0" result="BackgroundImageFix"/>
<feColorMatrix in="SourceAlpha" type="matrix" values="0 0 0 0 0 0 0 0 0 0 0 0 0 0 0 0 0 0 127 0"/>
<feOffset dx="24" dy="4"/>
<feGaussianBlur stdDeviation="8"/>
<feColorMatrix type="matrix" values="0 0 0 0 0.135371 0 0 0 0 0.135371 0 0 0 0 0.135371 0 0 0 0.25 0"/>
<feBlend mode="normal" in2="BackgroundImageFix" result="effect1_dropShadow"/>
<feBlend mode="normal" in="SourceGraphic" in2="effect1_dropShadow" result="shape"/>
</filter>
<filter id="filter5_d" x="251" y="109" width="47" height="49" filterUnits="userSpaceOnUse" color-interpolation-filters="sRGB">
<feFlood flood-opacity="0" result="BackgroundImageFix"/>
<feColorMatrix in="SourceAlpha" type="matrix" values="0 0 0 0 0 0 0 0 0 0 0 0 0 0 0 0 0 0 127 0"/>
<feOffset dx="24" dy="4"/>
<feGaussianBlur stdDeviation="8"/>
<feColorMatrix type="matrix" values="0 0 0 0 0.135371 0 0 0 0 0.135371 0 0 0 0 0.135371 0 0 0 0.25 0"/>
<feBlend mode="normal" in2="BackgroundImageFix" result="effect1_dropShadow"/>
<feBlend mode="normal" in="SourceGraphic" in2="effect1_dropShadow" result="shape"/>
</filter>
</defs>
</svg>
